<?xml version="1.0" encoding="UTF-8"?>
<svg width="800px" height="600px" viewBox="0 0 800 600" version="1.1" xmlns="http://www.w3.org/2000/svg" xmlns:xlink="http://www.w3.org/1999/xlink">
    <defs>
        <linearGradient x1="0%" y1="0%" x2="100%" y2="100%" id="linearGradient">
            <stop stop-color="#2E7DD1" offset="0%"></stop>
            <stop stop-color="#7F2BE8" offset="100%"></stop>
        </linearGradient>
        <filter x="-50%" y="-50%" width="200%" height="200%" filterUnits="objectBoundingBox" id="filter-glow">
            <feGaussianBlur stdDeviation="10" in="SourceGraphic" result="blur"></feGaussianBlur>
            <feColorMatrix type="matrix" values="1 0 0 0 0 0 1 0 0 0 0 0 1 0 0 0 0 0 18 -7" in="blur" result="glow"></feColorMatrix>
            <feBlend mode="normal" in="SourceGraphic" in2="glow" result="blend"></feBlend>
        </filter>
    </defs>
    
    <!-- Background Circle -->
    <circle cx="400" cy="300" r="250" fill="#f8fafc" stroke="#e5e7eb" stroke-width="2"></circle>
    
    <!-- Embryo Cell Cluster -->
    <g transform="translate(400, 300)">
        <!-- Main Cells -->
        <circle cx="0" cy="0" r="100" fill="#ffffff" stroke="url(#linearGradient)" stroke-width="3"></circle>
        
        <!-- Inner Cell Mass -->
        <g transform="translate(-30, -20)">
            <circle cx="0" cy="0" r="30" fill="#ffffff" stroke="#2E7DD1" stroke-width="2"></circle>
            <circle cx="20" cy="-15" r="25" fill="#ffffff" stroke="#2E7DD1" stroke-width="2"></circle>
            <circle cx="35" cy="15" r="28" fill="#ffffff" stroke="#2E7DD1" stroke-width="2"></circle>
            <circle cx="10" cy="30" r="22" fill="#ffffff" stroke="#2E7DD1" stroke-width="2"></circle>
            <circle cx="-20" cy="20" r="24" fill="#ffffff" stroke="#2E7DD1" stroke-width="2"></circle>
        </g>
        
        <!-- AI Scanning Lines -->
        <g opacity="0.7">
            <path d="M-150,0 L150,0" stroke="#32D192" stroke-width="1.5" stroke-dasharray="5,5"></path>
            <path d="M0,-150 L0,150" stroke="#32D192" stroke-width="1.5" stroke-dasharray="5,5"></path>
            <path d="M-120,-120 L120,120" stroke="#32D192" stroke-width="1.5" stroke-dasharray="5,5"></path>
            <path d="M120,-120 L-120,120" stroke="#32D192" stroke-width="1.5" stroke-dasharray="5,5"></path>
        </g>
        
        <!-- AI Analysis Points -->
        <g>
            <circle cx="70" cy="70" r="5" fill="#32D192" filter="url(#filter-glow)"></circle>
            <circle cx="-70" cy="-70" r="5" fill="#32D192" filter="url(#filter-glow)"></circle>
            <circle cx="70" cy="-70" r="5" fill="#32D192" filter="url(#filter-glow)"></circle>
            <circle cx="-70" cy="70" r="5" fill="#32D192" filter="url(#filter-glow)"></circle>
            <circle cx="100" cy="0" r="5" fill="#32D192" filter="url(#filter-glow)"></circle>
            <circle cx="-100" cy="0" r="5" fill="#32D192" filter="url(#filter-glow)"></circle>
            <circle cx="0" cy="100" r="5" fill="#32D192" filter="url(#filter-glow)"></circle>
            <circle cx="0" cy="-100" r="5" fill="#32D192" filter="url(#filter-glow)"></circle>
        </g>
    </g>
    
    <!-- AI Brain Nodes -->
    <g transform="translate(400, 100)">
        <path d="M-80,0 C-40,-40 40,-40 80,0 C40,40 -40,40 -80,0 Z" fill="none" stroke="#7F2BE8" stroke-width="2"></path>
        <circle cx="-60" cy="0" r="5" fill="#7F2BE8"></circle>
        <circle cx="-30" cy="-20" r="5" fill="#7F2BE8"></circle>
        <circle cx="0" cy="-25" r="5" fill="#7F2BE8"></circle>
        <circle cx="30" cy="-20" r="5" fill="#7F2BE8"></circle>
        <circle cx="60" cy="0" r="5" fill="#7F2BE8"></circle>
        <circle cx="30" cy="20" r="5" fill="#7F2BE8"></circle>
        <circle cx="0" cy="25" r="5" fill="#7F2BE8"></circle>
        <circle cx="-30" cy="20" r="5" fill="#7F2BE8"></circle>
        
        <!-- Connection Lines -->
        <path d="M-60,0 L-30,-20 L0,-25 L30,-20 L60,0 L30,20 L0,25 L-30,20 Z" stroke="#7F2BE8" stroke-width="1.5" fill="none"></path>
        <path d="M-60,0 L0,-25 L60,0 L0,25 Z" stroke="#7F2BE8" stroke-width="1.5" fill="none"></path>
        <path d="M-30,-20 L30,-20 L30,20 L-30,20 Z" stroke="#7F2BE8" stroke-width="1.5" fill="none"></path>
    </g>
    
    <!-- Data Connection Lines -->
    <g opacity="0.6">
        <path d="M400,140 L400,200" stroke="#2E7DD1" stroke-width="2" stroke-dasharray="5,5"></path>
    </g>
    
    <!-- Binary Data Dots -->
    <g transform="translate(400, 480)">
        <g fill="#2E7DD1" opacity="0.8">
            <circle cx="-80" cy="0" r="3"></circle>
            <circle cx="-70" cy="0" r="3"></circle>
            <circle cx="-50" cy="0" r="3"></circle>
            <circle cx="-30" cy="0" r="3"></circle>
            <circle cx="-10" cy="0" r="3"></circle>
            <circle cx="10" cy="0" r="3"></circle>
            <circle cx="30" cy="0" r="3"></circle>
            <circle cx="50" cy="0" r="3"></circle>
            <circle cx="70" cy="0" r="3"></circle>
            <circle cx="80" cy="0" r="3"></circle>
        </g>
        
        <g fill="#2E7DD1" opacity="0.6">
            <circle cx="-75" cy="10" r="3"></circle>
            <circle cx="-60" cy="10" r="3"></circle>
            <circle cx="-40" cy="10" r="3"></circle>
            <circle cx="-20" cy="10" r="3"></circle>
            <circle cx="0" cy="10" r="3"></circle>
            <circle cx="20" cy="10" r="3"></circle>
            <circle cx="40" cy="10" r="3"></circle>
            <circle cx="60" cy="10" r="3"></circle>
            <circle cx="75" cy="10" r="3"></circle>
        </g>
        
        <g fill="#2E7DD1" opacity="0.4">
            <circle cx="-70" cy="20" r="3"></circle>
            <circle cx="-50" cy="20" r="3"></circle>
            <circle cx="-30" cy="20" r="3"></circle>
            <circle cx="-10" cy="20" r="3"></circle>
            <circle cx="10" cy="20" r="3"></circle>
            <circle cx="30" cy="20" r="3"></circle>
            <circle cx="50" cy="20" r="3"></circle>
            <circle cx="70" cy="20" r="3"></circle>
        </g>
    </g>
    
    <!-- Lock Symbol for Data Privacy -->
    <g transform="translate(540, 520)">
        <rect x="-15" y="-5" width="30" height="25" rx="5" ry="5" fill="#7F2BE8"></rect>
        <path d="M-10,-5 L-10,-15 C-10,-22 10,-22 10,-15 L10,-5" stroke="#7F2BE8" stroke-width="3" fill="none"></path>
    </g>
</svg> 